# xmcd
#
# Track frame offsets:
#	150
#	19708
#	33322
#	53942
#	64916
#	80637
#	98964
#	110956
#	124249
#	142630
#	154541
#	169274
#	183640
#	197621
#
# Disc length: 2800 seconds
#
# Revision: 1
# Processed by: cddbd v1.5.2PL0 Copyright (c) Steve Scherf et al.
# Submitted via: EasyCDDAExtractor 11.9.9.666
#
DISCID=c10aee0e
DTITLE=Som Sete - O Jeito Som Sete de Cantar
DYEAR=1900
DGENRE=
TTITLE0=Pout-Pourri Apaixonado
TTITLE1=Rosto molhado
TTITLE2=Pout-Pourri do coração
TTITLE3=Não quero falar com ela
TTITLE4=A força do coração
TTITLE5=Pout-Pourri do amor em crise
TTITLE6=Brigas
TTITLE7=Quem será seu outro amor
TTITLE8=Pout-Pourri do amor
TTITLE9=A dois graus
TTITLE10=Seguindo no trem azul
TTITLE11=Vespeira
TTITLE12=Eu te amo
TTITLE13=Filme triste
EXTD=
EXTT0=
EXTT1=
EXTT2=
EXTT3=
EXTT4=
EXTT5=
EXTT6=
EXTT7=
EXTT8=
EXTT9=
EXTT10=
EXTT11=
EXTT12=
EXTT13=
PLAYORDER=
